# xmcd
#
# Track frame offsets:
#	150
#	19344
#	40924
#	64451
#	86683
#	102040
#	128384
#	148436
#	172681
#	187185
#	212177
#	242959
#
# Disc length: 3546 seconds
#
# Revision: 1
# Processed by: cddbd v1.5.1PL2 Copyright (c) Steve Scherf et al.
# Submitted via: audiograbber 1.83.01
#
DISCID=af0dd80c
DTITLE=Robert Cray Band - Take Your shoes Off
DYEAR=1900
DGENRE=Blues
TTITLE0=Love gone to waste
TTITLE1=That wasn't me
TTITLE2=All the way
TTITLE3=Theres nothing wrong
TTITLE4=24-7 Man
TTITLE5=Pardon
TTITLE6=Let me know
TTITLE7=Its all gone
TTITLE8=Won't you give him(one more chance)
TTITLE9=Living Proof
TTITLE10=What about me
TTITLE11=Tollin Bells
EXTD=
EXTT0=
EXTT1=
EXTT2=
EXTT3=
EXTT4=
EXTT5=
EXTT6=
EXTT7=
EXTT8=
EXTT9=
EXTT10=
EXTT11=
PLAYORDER=
